<mxfile host="app.diagrams.net" modified="2021-10-18T05:53:51.924Z" agent="5.0 (Macintosh; Intel Mac OS X 10_15_7) AppleWebKit/537.36 (KHTML, like Gecko) Chrome/92.0.4515.131 Safari/537.36" etag="g5xhfMtcte4-F__Bv3A1" version="15.5.2" type="github">
  <diagram id="b1UWnsIVvzESD6UXYWfb" name="Page-1">
    <mxGraphModel dx="788" dy="473" grid="1" gridSize="10" guides="1" tooltips="1" connect="1" arrows="1" fold="1" page="1" pageScale="1" pageWidth="827" pageHeight="1169" math="0" shadow="0">
      <root>
        <mxCell id="0" />
        <mxCell id="1" parent="0" />
        <mxCell id="0ZSpyMsnUgJeK2pMSkNS-1" value="" style="rounded=0;whiteSpace=wrap;html=1;" vertex="1" parent="1">
          <mxGeometry x="220" y="550" width="380" height="190" as="geometry" />
        </mxCell>
        <mxCell id="0ZSpyMsnUgJeK2pMSkNS-17" value="" style="edgeStyle=orthogonalEdgeStyle;rounded=0;orthogonalLoop=1;jettySize=auto;html=1;" edge="1" parent="1" source="0ZSpyMsnUgJeK2pMSkNS-2" target="0ZSpyMsnUgJeK2pMSkNS-5">
          <mxGeometry relative="1" as="geometry" />
        </mxCell>
        <mxCell id="0ZSpyMsnUgJeK2pMSkNS-2" value="策略判定" style="rounded=0;whiteSpace=wrap;html=1;" vertex="1" parent="1">
          <mxGeometry x="350" y="590" width="120" height="50" as="geometry" />
        </mxCell>
        <mxCell id="0ZSpyMsnUgJeK2pMSkNS-15" style="edgeStyle=orthogonalEdgeStyle;rounded=0;orthogonalLoop=1;jettySize=auto;html=1;entryX=0;entryY=0.5;entryDx=0;entryDy=0;" edge="1" parent="1" source="0ZSpyMsnUgJeK2pMSkNS-3" target="0ZSpyMsnUgJeK2pMSkNS-2">
          <mxGeometry relative="1" as="geometry" />
        </mxCell>
        <mxCell id="0ZSpyMsnUgJeK2pMSkNS-3" value="配置文件规则引擎" style="rounded=0;whiteSpace=wrap;html=1;" vertex="1" parent="1">
          <mxGeometry x="250" y="590" width="50" height="110" as="geometry" />
        </mxCell>
        <mxCell id="0ZSpyMsnUgJeK2pMSkNS-16" style="edgeStyle=orthogonalEdgeStyle;rounded=0;orthogonalLoop=1;jettySize=auto;html=1;entryX=1;entryY=0.5;entryDx=0;entryDy=0;" edge="1" parent="1" source="0ZSpyMsnUgJeK2pMSkNS-4" target="0ZSpyMsnUgJeK2pMSkNS-2">
          <mxGeometry relative="1" as="geometry" />
        </mxCell>
        <mxCell id="0ZSpyMsnUgJeK2pMSkNS-4" value="请求规则解析" style="rounded=0;whiteSpace=wrap;html=1;" vertex="1" parent="1">
          <mxGeometry x="520" y="590" width="50" height="110" as="geometry" />
        </mxCell>
        <mxCell id="0ZSpyMsnUgJeK2pMSkNS-18" style="edgeStyle=orthogonalEdgeStyle;rounded=0;orthogonalLoop=1;jettySize=auto;html=1;" edge="1" parent="1" source="0ZSpyMsnUgJeK2pMSkNS-5">
          <mxGeometry relative="1" as="geometry">
            <mxPoint x="410" y="800" as="targetPoint" />
          </mxGeometry>
        </mxCell>
        <mxCell id="0ZSpyMsnUgJeK2pMSkNS-5" value="组装回复" style="rounded=0;whiteSpace=wrap;html=1;" vertex="1" parent="1">
          <mxGeometry x="350" y="660" width="120" height="40" as="geometry" />
        </mxCell>
        <mxCell id="0ZSpyMsnUgJeK2pMSkNS-6" value="RTA" style="text;html=1;strokeColor=none;fillColor=none;align=center;verticalAlign=middle;whiteSpace=wrap;rounded=0;" vertex="1" parent="1">
          <mxGeometry x="220" y="550" width="60" height="30" as="geometry" />
        </mxCell>
        <mxCell id="0ZSpyMsnUgJeK2pMSkNS-10" style="edgeStyle=orthogonalEdgeStyle;rounded=0;orthogonalLoop=1;jettySize=auto;html=1;exitX=1;exitY=0.5;exitDx=0;exitDy=0;" edge="1" parent="1" source="0ZSpyMsnUgJeK2pMSkNS-7" target="0ZSpyMsnUgJeK2pMSkNS-3">
          <mxGeometry relative="1" as="geometry" />
        </mxCell>
        <mxCell id="0ZSpyMsnUgJeK2pMSkNS-7" value="配置文件" style="rounded=0;whiteSpace=wrap;html=1;" vertex="1" parent="1">
          <mxGeometry x="130" y="590" width="50" height="110" as="geometry" />
        </mxCell>
        <mxCell id="0ZSpyMsnUgJeK2pMSkNS-19" style="edgeStyle=orthogonalEdgeStyle;rounded=0;orthogonalLoop=1;jettySize=auto;html=1;entryX=1;entryY=0.5;entryDx=0;entryDy=0;" edge="1" parent="1" source="0ZSpyMsnUgJeK2pMSkNS-8" target="0ZSpyMsnUgJeK2pMSkNS-4">
          <mxGeometry relative="1" as="geometry" />
        </mxCell>
        <mxCell id="0ZSpyMsnUgJeK2pMSkNS-8" value="RTA请求" style="rounded=0;whiteSpace=wrap;html=1;" vertex="1" parent="1">
          <mxGeometry x="640" y="590" width="50" height="110" as="geometry" />
        </mxCell>
        <mxCell id="0ZSpyMsnUgJeK2pMSkNS-20" value="媒体侧" style="text;html=1;align=center;verticalAlign=middle;resizable=0;points=[];autosize=1;strokeColor=none;fillColor=none;" vertex="1" parent="1">
          <mxGeometry x="385" y="800" width="50" height="20" as="geometry" />
        </mxCell>
      </root>
    </mxGraphModel>
  </diagram>
</mxfile>
